# xmcd
#
# Track frame offsets:
# 150
# 15830
# 29008
# 45019
# 61900
# 82407
# 100099
# 118361
# 134660
# 150726
# 166510
# 185697
# 203226
# 221943
# 238936
# 256162
# 273635
#
# Disc length: 3920 seconds
#
#
# Revision: 0
# Processed by: cddbd v1.5.2PL0 Copyright (c) Steve Scherf et al.
# Submitted via: FreeRIP 2.945 
#
DISCID=f50f4e11
DTITLE=Lonestar - Greatest Hits
DYEAR=1900
DGENRE=Country
TTITLE0=Tequila Talking
TTITLE1=No News
TTITLE2=Running Away With My Heart
TTITLE3=Come Cryin' to Me
TTITLE4=You Walked In
TTITLE5=Everything's Changed
TTITLE6=Amazed
TTITLE7=Smile
TTITLE8=What About Now
TTITLE9=Tell Her
TTITLE10=I'm Already There
TTITLE11=With Me
TTITLE12=Not a Day Goes By
TTITLE13=Front Porch
TTITLE14=I Pray
TTITLE15=Walking In Memphis
TTITLE16=I'm Already There (Message from Home)
EXTD=
EXTT0=
EXTT1=
EXTT2=
EXTT3=
EXTT4=
EXTT5=
EXTT6=
EXTT7=
EXTT8=
EXTT9=
EXTT10=
EXTT11=
EXTT12=
EXTT13=
EXTT14=
EXTT15=
EXTT16=
PLAYORDER=
